<svg width="203" height="224" viewBox="0 0 203 224" fill="none" xmlns="http://www.w3.org/2000/svg">
<path d="M0.100002 132.3C0.100002 124.3 1.3 116.3 3.8 109.1C7.8 97.4 14.9 87.1 23.1 78.4C28.6 72.5 34.7 67.2 41.2 62.7C41.9 62.2 42.7 61.8 43.3 61.3C43.6 61.1 43.9 60.9 44.1 60.7C50.5 55.9 56.8 50.8 62.8 45.4C67.8 41 72.6 36.4 77.2 31.6C80.8 27.8 84.3 23.9 87.7 19.9C90.1 17 92.4 13.9 94.7 10.8C97.1 7.4 99.3 3.9 101.1 0C101.9 1.7 102.7 3.4 103.7 5C105 7.1 106.3 9.1 107.7 11.1C109.9 14.3 112.3 17.3 114.8 20.3C118.2 24.4 121.7 28.3 125.4 32.1C130.1 36.9 134.9 41.6 139.9 46C146 51.4 152.3 56.5 158.8 61.4C162.7 64.3 166.7 66.9 170.4 70.1C178.6 77.1 186.1 85.3 191.9 94.6C199.3 106.6 203 119.9 202.8 134.3C202.6 149.6 198.6 164.1 190.7 176.8C183.6 188.3 173.8 197.8 162.8 205.1C150.8 213 137.3 218.3 123.4 221C116.2 222.4 108.8 223.1 101.5 223.1C86.8 223.1 72 220.3 58.2 214.7C45.6 209.5 33.8 201.9 24.1 191.9C15.1 182.6 7.9 171.3 3.9 158.6C1.3 150.5 0 141.5 0 132.6" fill="#F0CB08"/>
<path d="M22.7998 152.9C22.7998 146.8 23.6998 140.7 25.5998 135.1C28.6998 126.2 34.0998 118.3 40.3998 111.6C44.5998 107.1 49.2998 103 54.2998 99.6C54.7998 99.2 55.3998 98.9 55.8998 98.5C56.0998 98.3 56.2998 98.2 56.4998 98C61.3998 94.3 66.1998 90.4 70.8998 86.3C74.6998 82.9 78.3998 79.4 81.8998 75.7C84.6998 72.8 87.3998 69.8 89.8998 66.7C91.6998 64.4 93.4998 62.1 95.1998 59.7C96.9998 57.1 98.6998 54.4 100.1 51.5C100.7 52.8 101.3 54.1 102.1 55.3C103.1 56.9 104.1 58.4 105.2 59.9C106.9 62.3 108.7 64.7 110.6 67C113.2 70.1 115.9 73.2 118.7 76.1C122.3 79.8 126 83.3 129.8 86.7C134.5 90.8 139.3 94.7 144.3 98.5C147.3 100.7 150.3 102.7 153.2 105.1C159.5 110.5 165.2 116.7 169.7 123.9C175.4 133.1 178.2 143.3 178.1 154.3C177.9 166 174.9 177.1 168.8 186.8C163.3 195.6 155.9 202.9 147.5 208.5C138.3 214.6 128 218.6 117.3 220.7C111.8 221.8 106.1 222.3 100.5 222.3C89.1998 222.3 77.8998 220.2 67.3998 215.9C57.7998 211.9 48.6998 206.1 41.2998 198.4C34.3998 191.3 28.8998 182.6 25.7998 172.9C23.7998 166.7 22.7998 159.8 22.7998 153" fill="#D55338"/>
</svg>
