<svg width="306" height="344" viewBox="0 0 306 344" fill="none" xmlns="http://www.w3.org/2000/svg">
<path d="M109.751 260.749L124.647 206.277H165.154C165.261 206.277 176.924 206 184.462 213.363C188.872 217.666 191.036 223.701 190.905 231.28C190.768 239.326 187.462 246.047 181.097 251.246C175.641 255.7 168.992 258.127 164.381 259.38C161.053 260.279 157.436 260.749 153.629 260.749H109.751ZM140.863 130.403L140.932 130.164L154.508 75.9398H191.598C191.695 75.9338 201.759 75.6688 208.66 82.3863C213.12 86.7202 215.316 92.9659 215.191 100.942C215.062 108.985 212.04 115.705 206.206 120.902C201.209 125.357 195.13 127.785 190.9 129.036C187.848 129.941 184.54 130.403 181.048 130.403H140.863ZM9.80282 343.623H106.363C114.212 343.623 122.324 343.635 130.304 343.457C159.633 342.85 184.019 338.334 204.853 329.677C228.805 319.722 248.138 303.896 262.314 282.652C271.221 269.286 277.8 255.297 281.345 242.162C284.901 228.976 284.241 213.187 279.53 198.854C274.556 183.696 265.498 171.176 254.035 163.59L254.147 163.431L254.06 163.253C254.087 163.24 254.159 163.197 254.389 163.022L254.433 162.989C267.925 153.375 279.799 141.824 288.785 129.588C302.262 111.235 308.045 86.5472 304.644 61.8502C302.237 44.4261 293.552 28.8979 280.191 18.1441C262.922 4.10529 238.851 1.31883 222.249 0.446474C213.663 -0.00724861 205.289 6.96866e-06 197.203 6.96866e-06H85.2744C83.3204 7.88752 2.89293 331.882 0 343.533C0.761043 343.435 2.85179 343.406 8.7405 343.585C9.30675 343.608 9.70118 343.623 9.80282 343.623Z" fill="#E13800"/>
</svg>
